<svg xmlns="http://www.w3.org/2000/svg" width="870" height="610" viewBox="0 0 870 610">
  <style>
    :root {
      --color-background: #131c37;
      --color-panel: #202a54;
      --color-panel-stroke: #4357af;
      --color-label: #98a7e9;
      --color-subtle: #c7b5e3;
      --color-slot: #1c2549;
      --color-slot-stroke: #546ddb;
      --color-slot-num: #a272e4;
      --color-highlight: #dd7b5c;
    }

    .panel { fill: var(--color-panel); fill-opacity: 0.5; stroke: var(--color-panel-stroke); stroke-width: 2; }
    .title { font: 700 12px system-ui, -apple-system, Segoe UI, Roboto, Arial; fill: var(--color-label); }
    .subtitle { font: 12px system-ui, -apple-system, Segoe UI, Roboto, Arial; fill: var(--color-subtle); }
    .slot { fill: var(--color-slot); stroke: var(--color-slot-stroke); stroke-width: 1.5; }
    .slotNum { font: 0px system-ui, -apple-system, Segoe UI, Roboto, Arial; fill: var(--color-slot-num); }
  </style>

  <rect x="0" y="0" width="1100" height="720" fill="var(--color-background)"/>
  <image href="background.svg" x="0" y="0" width="870" height="610" preserveAspectRatio="xMidYMid slice" opacity="0.65" />

  <!-- Layout constants (by convention):
       slot = 70, gap = 10, padding = 18
  -->
<g transform="translate(10,10)">
  <!-- ===== Equipment (center) ===== -->
  <g transform="translate(0,0)">
    <rect class="panel" x="0" y="0" width="370" height="230" />
    <text class="title" x="3" y="14">Character</text>
  </g>

  <!-- ===== Equipment (center) ===== -->
  <g transform="translate(0,240)">
    <rect class="panel" x="0" y="0" width="370" height="350" />
    <text class="title" x="3" y="16">Equipment</text>

    <!-- 4x4 grid -->
    <g transform="translate(20,20)">
      <!-- row 1 -->
      <rect class="slot" x="0"   y="0"  width="70" height="70"/><text class="slotNum" x="6"  y="14">1</text>
      <rect class="slot" x="80"  y="0"  width="70" height="70"/><text class="slotNum" x="86" y="14">2</text>
      <rect class="slot" x="160" y="0"  width="70" height="70"/><text class="slotNum" x="166" y="14">3</text>
      <rect class="slot" x="260" y="0"  width="70" height="70"/><text class="slotNum" x="266" y="14">11</text>

      <!-- row 2 -->
      <rect class="slot" x="0"   y="80" width="70" height="70"/><text class="slotNum" x="6"  y="94">4</text>
      <rect class="slot" x="80"  y="80" width="70" height="70"/><text class="slotNum" x="86" y="94">5</text>
      <rect class="slot" x="160" y="80" width="70" height="70"/><text class="slotNum" x="166" y="94">6</text>
      <rect class="slot" x="260" y="80" width="70" height="70"/><text class="slotNum" x="266" y="94">12</text>

      <!-- row 3 -->
      <rect class="slot" x="0"   y="160" width="70" height="70"/><text class="slotNum" x="6"  y="174">7</text>
      <rect class="slot" x="80"  y="160" width="70" height="70"/><text class="slotNum" x="86" y="174">8</text>
      <rect class="slot" x="160" y="160" width="70" height="70"/><text class="slotNum" x="166" y="174">9</text>
      <rect class="slot" x="260" y="160" width="70" height="70"/><text class="slotNum" x="266" y="174">13</text>

      <!-- row 4 -->
      <!--rect class="slot" x="0"   y="240" width="70" height="70"/><text class="slotNum" x="6"  y="254">13</text-->
      <rect class="slot" x="80"  y="240" width="70" height="70"/><text class="slotNum" x="86" y="254">10</text>
      <!--rect class="slot" x="160" y="240" width="70" height="70"/><text class="slotNum" x="166" y="254">15</text-->
      <rect class="slot" x="260" y="240" width="70" height="70"/><text class="slotNum" x="266" y="254">14</text>
    </g>
  </g>

  <!-- ===== Right side: Food (rows of 3) ===== -->
  <g transform="translate(380,0)">
    <rect class="panel" x="0" y="0" width="350" height="190" />
    <text class="title" x="3" y="14">Food</text>

    <g transform="translate(55,20)">
      <!-- row 1 (1-3) -->
      <rect class="slot" x="0"   y="0" width="70" height="70"/><text class="slotNum" x="6"  y="14">1</text>
      <rect class="slot" x="80"  y="0" width="70" height="70"/><text class="slotNum" x="86" y="14">2</text>
      <rect class="slot" x="160" y="0" width="70" height="70"/><text class="slotNum" x="166" y="14">3</text>

      <!-- row 2 (4-6) -->
      <rect class="slot" x="0"   y="80" width="70" height="70"/><text class="slotNum" x="6"  y="94">4</text>
      <rect class="slot" x="80"  y="80" width="70" height="70"/><text class="slotNum" x="86" y="94">5</text>
      <rect class="slot" x="160" y="80" width="70" height="70"/><text class="slotNum" x="166" y="94">6</text>
    </g>
  </g>

  <!-- ===== Right side: Abilities (rows of 3) ===== -->
  <g transform="translate(380,200)">
    <rect class="panel" x="0" y="0" width="350" height="190" />
    <text class="title" x="3" y="14">Abilities</text>

    <g transform="translate(20,20)">
      <!-- row 1 -->
      <rect class="slot" x="0"   y="0" width="70" height="70"/><text class="slotNum" x="6"  y="14">1</text>
      <rect class="slot" x="80"  y="0" width="70" height="70"/><text class="slotNum" x="86" y="14">2</text>
      <rect class="slot" x="160" y="0" width="70" height="70"/><text class="slotNum" x="166" y="14">3</text>
      <rect class="slot" x="240" y="0" width="70" height="70"/><text class="slotNum" x="246" y="14">4</text>

      <!-- row 2 -->
      <rect class="slot" x="0"   y="80" width="70" height="70"/><text class="slotNum" x="6"  y="94">5</text>
      <rect class="slot" x="80"  y="80" width="70" height="70"/><text class="slotNum" x="86" y="94">6</text>
      <rect class="slot" x="160" y="80" width="70" height="70"/><text class="slotNum" x="166" y="94">7</text>
      <rect class="slot" x="240" y="80" width="70" height="70"/><text class="slotNum" x="246" y="94">8</text>
    </g>
  </g>

  <!-- ===== Skills (8 slots) ===== -->
  <g transform="translate(380,400)">
    <rect class="panel" x="0" y="0" width="350" height="190" />
    <text class="title" x="3" y="14">Skills</text>

    <g transform="translate(20,20)">
      <!-- row 1 -->
      <rect class="slot" x="0"   y="0" width="70" height="70"/><text class="slotNum" x="6"  y="14">1</text>
      <rect class="slot" x="80"  y="0" width="70" height="70"/><text class="slotNum" x="86" y="14">2</text>
      <rect class="slot" x="160" y="0" width="70" height="70"/><text class="slotNum" x="166" y="14">3</text>
      <rect class="slot" x="240" y="0" width="70" height="70"/><text class="slotNum" x="246" y="14">4</text>

      <!-- row 2 -->
      <rect class="slot" x="0"   y="80" width="70" height="70"/><text class="slotNum" x="6"  y="94">5</text>
      <rect class="slot" x="80"  y="80" width="70" height="70"/><text class="slotNum" x="86" y="94">6</text>
      <rect class="slot" x="160" y="80" width="70" height="70"/><text class="slotNum" x="166" y="94">7</text>
      <rect class="slot" x="240" y="80" width="70" height="70"/><text class="slotNum" x="246" y="94">8</text>
    </g>
  </g>

  <!-- ===== Housing (left of Equipment, vertical) ===== -->
  <g transform="translate(740,0)">
    <rect class="panel" x="0" y="0" width="110" height="590" />
    <text class="title" x="3" y="14">Housing</text>

    <!-- 7 stacked slots -->
    <g transform="translate(20,20)">
      <rect class="slot" x="0" y="0"   width="70" height="70"/><text class="slotNum" x="6" y="14">1</text>
      <rect class="slot" x="0" y="80"  width="70" height="70"/><text class="slotNum" x="6" y="94">2</text>
      <rect class="slot" x="0" y="160" width="70" height="70"/><text class="slotNum" x="6" y="174">3</text>
      <rect class="slot" x="0" y="240" width="70" height="70"/><text class="slotNum" x="6" y="254">4</text>
      <rect class="slot" x="0" y="320" width="70" height="70"/><text class="slotNum" x="6" y="334">5</text>
      <rect class="slot" x="0" y="400" width="70" height="70"/><text class="slotNum" x="6" y="414">6</text>
      <rect class="slot" x="0" y="480" width="70" height="70"/><text class="slotNum" x="6" y="494">7</text>
    </g>
  </g>
</g>
</svg>
