<svg xmlns="http://www.w3.org/2000/svg" width="870" height="610" viewBox="0 0 870 610">
  <style>
    :root {
      --color-background: #131c37;
      --color-panel: #202a54;
      --color-panel-stroke: #4357af;
      --color-label: #98a7e9;
      --color-subtle: #c7b5e3;
      --color-slot: #1c2549;
      --color-slot-stroke: #546ddb;
      --color-slot-num: #a272e4;
      --color-highlight: #dd7b5c;
      --color-text-dark-mode: #e7e7e7;
      --color-orange-400: #fbb54b;
    }

    .panel { fill: var(--color-panel); fill-opacity: 0.5; stroke: var(--color-panel-stroke); stroke-width: 2; }
    .title { font: 700 12px system-ui, -apple-system, Segoe UI, Roboto, Arial; fill: var(--color-label); }
    .subtitle { font: 12px system-ui, -apple-system, Segoe UI, Roboto, Arial; fill: var(--color-subtle); }
    .slot { fill: var(--color-slot); stroke: var(--color-slot-stroke); stroke-width: 1.5; }
    .slotNum { font: 0px system-ui, -apple-system, Segoe UI, Roboto, Arial; fill: var(--color-slot-num); }
    .skillLevel { font: 700 12px system-ui, -apple-system, Segoe UI, Roboto, Arial; fill: var(--color-text-dark-mode); text-anchor: end; }
    .enchant { font: 700 11px system-ui, -apple-system, Segoe UI, Roboto, Arial; fill: var(--color-orange-400); text-anchor: start; }
  </style>

  <rect x="0" y="0" width="1100" height="720" fill="var(--color-background)"/>
  <image href="background.svg" x="0" y="0" width="870" height="610" preserveAspectRatio="xMidYMid slice" opacity="0.65" />

  <!-- render-map:
  {
    "joinBy": "-",
    "split": {
      "delimiter": ";",
      "keys": ["skills","abilities","food","housing","equipment","avatar","name"],
      "skills": {
        "delimiter": ",",
        "keys": ["combat","stamina","intelligence","attack","defense","melee","ranged","magic"],
        "default": ""
      },
      "abilities": {
        "delimiter": ",",
        "keys": ["1","2","3","4","5","6","7","8"],
        "1":  { "delimiter": ".", "keys": ["item","level"], "item": { "prefix": "abilities_sprite.svg#", "default": "" }, "level": { "default": "" } },
        "2":  { "delimiter": ".", "keys": ["item","level"], "item": { "prefix": "abilities_sprite.svg#", "default": "" }, "level": { "default": "" } },
        "3":  { "delimiter": ".", "keys": ["item","level"], "item": { "prefix": "abilities_sprite.svg#", "default": "" }, "level": { "default": "" } },
        "4":  { "delimiter": ".", "keys": ["item","level"], "item": { "prefix": "abilities_sprite.svg#", "default": "" }, "level": { "default": "" } },
        "5":  { "delimiter": ".", "keys": ["item","level"], "item": { "prefix": "abilities_sprite.svg#", "default": "" }, "level": { "default": "" } },
        "6":  { "delimiter": ".", "keys": ["item","level"], "item": { "prefix": "abilities_sprite.svg#", "default": "" }, "level": { "default": "" } },
        "7":  { "delimiter": ".", "keys": ["item","level"], "item": { "prefix": "abilities_sprite.svg#", "default": "" }, "level": { "default": "" } },
        "8":  { "delimiter": ".", "keys": ["item","level"], "item": { "prefix": "abilities_sprite.svg#", "default": "" }, "level": { "default": "" } }
      },
      "food": {
        "delimiter": ",",
        "keys": ["1","2","3","4","5","6"],
        "prefix": "items_sprite.svg#",
        "default": ""
      },
      "housing": {
        "delimiter": ",",
        "keys": ["1","2","3","4","5","6","7"],
        "default": ""
      },
      "equipment": {
        "delimiter": ",",
        "keys": ["1","2","3","4","5","6","7","8","9","10","11","12","13","14"],
        "default": "",
        "1":  { "delimiter": ".", "keys": ["item","enchantment"], "item": { "prefix": "items_sprite.svg#", "default": "" }, "enchantment": { "default": "" } },
        "2":  { "delimiter": ".", "keys": ["item","enchantment"], "item": { "prefix": "items_sprite.svg#", "default": "" }, "enchantment": { "default": "" } },
        "3":  { "delimiter": ".", "keys": ["item","enchantment"], "item": { "prefix": "items_sprite.svg#", "default": "" }, "enchantment": { "default": "" } },
        "4":  { "delimiter": ".", "keys": ["item","enchantment"], "item": { "prefix": "items_sprite.svg#", "default": "" }, "enchantment": { "default": "" } },
        "5":  { "delimiter": ".", "keys": ["item","enchantment"], "item": { "prefix": "items_sprite.svg#", "default": "" }, "enchantment": { "default": "" } },
        "6":  { "delimiter": ".", "keys": ["item","enchantment"], "item": { "prefix": "items_sprite.svg#", "default": "" }, "enchantment": { "default": "" } },
        "7":  { "delimiter": ".", "keys": ["item","enchantment"], "item": { "prefix": "items_sprite.svg#", "default": "" }, "enchantment": { "default": "" } },
        "8":  { "delimiter": ".", "keys": ["item","enchantment"], "item": { "prefix": "items_sprite.svg#", "default": "" }, "enchantment": { "default": "" } },
        "9":  { "delimiter": ".", "keys": ["item","enchantment"], "item": { "prefix": "items_sprite.svg#", "default": "" }, "enchantment": { "default": "" } },
        "10": { "delimiter": ".", "keys": ["item","enchantment"], "item": { "prefix": "items_sprite.svg#", "default": "" }, "enchantment": { "default": "" } },
        "11": { "delimiter": ".", "keys": ["item","enchantment"], "item": { "prefix": "items_sprite.svg#", "default": "" }, "enchantment": { "default": "" } },
        "12": { "delimiter": ".", "keys": ["item","enchantment"], "item": { "prefix": "items_sprite.svg#", "default": "" }, "enchantment": { "default": "" } },
        "13": { "delimiter": ".", "keys": ["item","enchantment"], "item": { "prefix": "items_sprite.svg#", "default": "" }, "enchantment": { "default": "" } },
        "14": { "delimiter": ".", "keys": ["item","enchantment"], "item": { "prefix": "items_sprite.svg#", "default": "" }, "enchantment": { "default": "" } }
      },
      "avatar": {
        "delimiter": ",",
        "keys": ["base","outfit"],
        "base": { "prefix": "avatars_sprite.svg#", "default": "person_default" },
        "outfit": { "prefix": "avatar_outfits_sprite.svg#", "default": "tshirt_default" }
      },
      "name": { "delimiter": null, "default": "" }
    }
  }
  -->

  <!-- Layout constants (by convention):
       slot = 70, gap = 10, padding = 18
  -->
<g transform="translate(10,10)">
  <!-- ===== Equipment (center) ===== -->
  <g transform="translate(0,0)">
    <rect class="panel" x="0" y="0" width="370" height="230" />
    <text class="title" x="3" y="14">Character</text>
    <text class="title" id="character-name" x="185" y="22" text-anchor="middle">{{name}}</text>
    <g id="character-avatar" transform="translate(25,30)">
      <!--rect x="0" y="0" width="320" height="180" rx="10" ry="10" fill="var(- -color-slot)" stroke="var(- -color-slot-stroke)" stroke-width="1.5" /-->
      <g transform="translate(85,15) scale(0.75)">
        <svg width="200" height="200" viewBox="0 0 200 200">
          <use id="avatar-base" href="{{avatar-base}}" width="200" height="200" />
        </svg>
        <svg width="200" height="200" viewBox="0 0 200 200">
          <use id="avatar-outfit" href="{{avatar-outfit}}" width="200" height="200" />
        </svg>
      </g>
    </g>
  </g>

  <!-- ===== Equipment (center) ===== -->
  <g transform="translate(0,240)">
    <rect class="panel" x="0" y="0" width="370" height="350" />
    <text class="title" x="3" y="14">Equipment</text>

    <!-- 4x4 grid -->
    <g transform="translate(20,20)">
      <!-- row 1 -->
      <rect class="slot" x="0"   y="0"  width="70" height="70"/>
      <use id="equip-icon-1" href="{{equipment-1-item}}" x="15" y="15" width="40" height="40" />
      <text class="enchant" id="equip-enchant-1" x="6" y="12">{{equipment-1-enchantment}}</text>
      <rect class="slot" x="80"  y="0"  width="70" height="70"/>
      <use id="equip-icon-2" href="{{equipment-2-item}}" x="95" y="15" width="40" height="40" />
      <text class="enchant" id="equip-enchant-2" x="86" y="12">{{equipment-2-enchantment}}</text>
      <rect class="slot" x="160" y="0"  width="70" height="70"/>
      <use id="equip-icon-3" href="{{equipment-3-item}}" x="175" y="15" width="40" height="40" />
      <text class="enchant" id="equip-enchant-3" x="166" y="12">{{equipment-3-enchantment}}</text>
      <rect class="slot" x="260" y="0"  width="70" height="70"/>
      <use id="equip-icon-11" href="{{equipment-11-item}}" x="275" y="15" width="40" height="40" />
      <text class="enchant" id="equip-enchant-11" x="266" y="12">{{equipment-11-enchantment}}</text>

      <!-- row 2 -->
      <rect class="slot" x="0"   y="80" width="70" height="70"/>
      <use id="equip-icon-4" href="{{equipment-4-item}}" x="15" y="95" width="40" height="40" />
      <text class="enchant" id="equip-enchant-4" x="6" y="92">{{equipment-4-enchantment}}</text>
      <rect class="slot" x="80"  y="80" width="70" height="70"/>
      <use id="equip-icon-5" href="{{equipment-5-item}}" x="95" y="95" width="40" height="40" />
      <text class="enchant" id="equip-enchant-5" x="86" y="92">{{equipment-5-enchantment}}</text>
      <rect class="slot" x="160" y="80" width="70" height="70"/>
      <use id="equip-icon-6" href="{{equipment-6-item}}" x="175" y="95" width="40" height="40" />
      <text class="enchant" id="equip-enchant-6" x="166" y="92">{{equipment-6-enchantment}}</text>
      <rect class="slot" x="260" y="80" width="70" height="70"/>
      <use id="equip-icon-12" href="{{equipment-12-item}}" x="275" y="95" width="40" height="40" />
      <text class="enchant" id="equip-enchant-12" x="266" y="92">{{equipment-12-enchantment}}</text>

      <!-- row 3 -->
      <rect class="slot" x="0"   y="160" width="70" height="70"/>
      <use id="equip-icon-7" href="{{equipment-7-item}}" x="15" y="175" width="40" height="40" />
      <text class="enchant" id="equip-enchant-7" x="6" y="172">{{equipment-7-enchantment}}</text>
      <rect class="slot" x="80"  y="160" width="70" height="70"/>
      <use id="equip-icon-8" href="{{equipment-8-item}}" x="95" y="175" width="40" height="40" />
      <text class="enchant" id="equip-enchant-8" x="86" y="172">{{equipment-8-enchantment}}</text>
      <rect class="slot" x="160" y="160" width="70" height="70"/>
      <use id="equip-icon-9" href="{{equipment-9-item}}" x="175" y="175" width="40" height="40" />
      <text class="enchant" id="equip-enchant-9" x="166" y="172">{{equipment-9-enchantment}}</text>
      <rect class="slot" x="260" y="160" width="70" height="70"/>
      <use id="equip-icon-13" href="{{equipment-13-item}}" x="275" y="175" width="40" height="40" />
      <text class="enchant" id="equip-enchant-13" x="266" y="172">{{equipment-13-enchantment}}</text>

      <!-- row 4 -->
      <rect class="slot" x="80"  y="240" width="70" height="70"/>
      <use id="equip-icon-10" href="{{equipment-10-item}}" x="95" y="255" width="40" height="40" />
      <text class="enchant" id="equip-enchant-10" x="86" y="252">{{equipment-10-enchantment}}</text>
      <rect class="slot" x="260" y="240" width="70" height="70"/>
      <use id="equip-icon-14" href="{{equipment-14-item}}" x="275" y="255" width="40" height="40" />
      <text class="enchant" id="equip-enchant-14" x="266" y="252">{{equipment-14-enchantment}}</text>
    </g>
  </g>

  <!-- ===== Right side: Food (rows of 3) ===== -->
  <g transform="translate(380,0)">
    <rect class="panel" x="0" y="0" width="350" height="190" />
    <text class="title" x="3" y="14">Food</text>

    <g transform="translate(55,20)">
      <!-- row 1 (1-3) -->
      <rect class="slot" x="0"   y="0" width="70" height="70"/><text class="slotNum" x="6"  y="14">1</text>
      <use id="food-icon-1" href="{{food-1}}" x="15" y="15" width="40" height="40" />
      <rect class="slot" x="80"  y="0" width="70" height="70"/><text class="slotNum" x="86" y="14">2</text>
      <use id="food-icon-2" href="{{food-2}}" x="95" y="15" width="40" height="40" />
      <rect class="slot" x="160" y="0" width="70" height="70"/><text class="slotNum" x="166" y="14">3</text>
      <use id="food-icon-3" href="{{food-3}}" x="175" y="15" width="40" height="40" />

      <!-- row 2 (4-6) -->
      <rect class="slot" x="0"   y="80" width="70" height="70"/><text class="slotNum" x="6"  y="94">4</text>
      <use id="food-icon-4" href="{{food-4}}" x="15" y="95" width="40" height="40" />
      <rect class="slot" x="80"  y="80" width="70" height="70"/><text class="slotNum" x="86" y="94">5</text>
      <use id="food-icon-5" href="{{food-5}}" x="95" y="95" width="40" height="40" />
      <rect class="slot" x="160" y="80" width="70" height="70"/><text class="slotNum" x="166" y="94">6</text>
      <use id="food-icon-6" href="{{food-6}}" x="175" y="95" width="40" height="40" />
    </g>
  </g>

  <!-- ===== Right side: Abilities (rows of 3) ===== -->
  <g transform="translate(380,200)">
    <rect class="panel" x="0" y="0" width="350" height="190" />
    <text class="title" x="3" y="14">Abilities</text>

    <g transform="translate(20,20)">
      <!-- row 1 -->
      <rect class="slot" x="0"   y="0" width="70" height="70"/><text class="slotNum" x="6"  y="14">1</text>
      <use id="ability-icon-1" href="{{abilities-1-item}}" x="15" y="15" width="40" height="40" />
      <rect class="slot" x="80"  y="0" width="70" height="70"/><text class="slotNum" x="86" y="14">2</text>
      <use id="ability-icon-2" href="{{abilities-2-item}}" x="95" y="15" width="40" height="40" />
      <rect class="slot" x="160" y="0" width="70" height="70"/><text class="slotNum" x="166" y="14">3</text>
      <use id="ability-icon-3" href="{{abilities-3-item}}" x="175" y="15" width="40" height="40" />
      <rect class="slot" x="240" y="0" width="70" height="70"/><text class="slotNum" x="246" y="14">4</text>
      <use id="ability-icon-4" href="{{abilities-4-item}}" x="255" y="15" width="40" height="40" />
      <text class="skillLevel" id="ability-level-1" x="65" y="14">{{abilities-1-level}}</text>
      <text class="skillLevel" id="ability-level-2" x="145" y="14">{{abilities-2-level}}</text>
      <text class="skillLevel" id="ability-level-3" x="225" y="14">{{abilities-3-level}}</text>
      <text class="skillLevel" id="ability-level-4" x="305" y="14">{{abilities-4-level}}</text>

      <!-- row 2 -->
      <rect class="slot" x="0"   y="80" width="70" height="70"/><text class="slotNum" x="6"  y="94">5</text>
      <use id="ability-icon-5" href="{{abilities-5-item}}" x="15" y="95" width="40" height="40" />
      <rect class="slot" x="80"  y="80" width="70" height="70"/><text class="slotNum" x="86" y="94">6</text>
      <use id="ability-icon-6" href="{{abilities-6-item}}" x="95" y="95" width="40" height="40" />
      <rect class="slot" x="160" y="80" width="70" height="70"/><text class="slotNum" x="166" y="94">7</text>
      <use id="ability-icon-7" href="{{abilities-7-item}}" x="175" y="95" width="40" height="40" />
      <rect class="slot" x="240" y="80" width="70" height="70"/><text class="slotNum" x="246" y="94">8</text>
      <use id="ability-icon-8" href="{{abilities-8-item}}" x="255" y="95" width="40" height="40" />
      <text class="skillLevel" id="ability-level-5" x="65" y="94">{{abilities-5-level}}</text>
      <text class="skillLevel" id="ability-level-6" x="145" y="94">{{abilities-6-level}}</text>
      <text class="skillLevel" id="ability-level-7" x="225" y="94">{{abilities-7-level}}</text>
      <text class="skillLevel" id="ability-level-8" x="305" y="94">{{abilities-8-level}}</text>
    </g>
  </g>

  <!-- ===== Skills (8 slots) ===== -->
  <g transform="translate(380,400)">
    <rect class="panel" x="0" y="0" width="350" height="190" />
    <text class="title" x="3" y="14">Skills</text>

    <g transform="translate(20,20)">
      <!-- row 1 -->
      <rect class="slot" x="0"   y="0" width="70" height="70"/><text class="slotNum" x="6"  y="14">1</text>
      <use href="misc_sprite.svg#combat" x="15" y="15" width="40" height="40" />
      <rect class="slot" x="80"  y="0" width="70" height="70"/><text class="slotNum" x="86" y="14">2</text>
      <use href="skills_sprite.svg#melee" x="95" y="15" width="40" height="40" />
      <rect class="slot" x="160" y="0" width="70" height="70"/><text class="slotNum" x="166" y="14">3</text>
      <use href="skills_sprite.svg#ranged" x="175" y="15" width="40" height="40" />
      <rect class="slot" x="240" y="0" width="70" height="70"/><text class="slotNum" x="246" y="14">4</text>
      <use href="skills_sprite.svg#magic" x="255" y="15" width="40" height="40" />
      <text class="skillLevel" id="skill-level-1" x="65" y="14">{{skills-combat}}</text>
      <text class="skillLevel" id="skill-level-2" x="145" y="14">{{skills-melee}}</text>
      <text class="skillLevel" id="skill-level-3" x="225" y="14">{{skills-ranged}}</text>
      <text class="skillLevel" id="skill-level-4" x="305" y="14">{{skills-magic}}</text>

      <!-- row 2 -->
      <rect class="slot" x="0"   y="80" width="70" height="70"/><text class="slotNum" x="6"  y="94">5</text>
      <use href="skills_sprite.svg#stamina" x="15" y="95" width="40" height="40" />
      <rect class="slot" x="80"  y="80" width="70" height="70"/><text class="slotNum" x="86" y="94">6</text>
      <use href="skills_sprite.svg#intelligence" x="95" y="95" width="40" height="40" />
      <rect class="slot" x="160" y="80" width="70" height="70"/><text class="slotNum" x="166" y="94">7</text>
      <use href="skills_sprite.svg#attack" x="175" y="95" width="40" height="40" />
      <rect class="slot" x="240" y="80" width="70" height="70"/><text class="slotNum" x="246" y="94">8</text>
      <use href="skills_sprite.svg#defense" x="255" y="95" width="40" height="40" />
      <text class="skillLevel" id="skill-level-5" x="65" y="94">{{skills-stamina}}</text>
      <text class="skillLevel" id="skill-level-6" x="145" y="94">{{skills-intelligence}}</text>
      <text class="skillLevel" id="skill-level-7" x="225" y="94">{{skills-attack}}</text>
      <text class="skillLevel" id="skill-level-8" x="305" y="94">{{skills-defense}}</text>
    </g>
  </g>

  <!-- ===== Housing (left of Equipment, vertical) ===== -->
  <g transform="translate(740,0)">
    <rect class="panel" x="0" y="0" width="110" height="590" />
    <text class="title" x="3" y="14">Housing</text>

    <!-- 7 stacked slots -->
    <g transform="translate(20,20)">
      <rect class="slot" x="0" y="0"   width="70" height="70"/><text class="slotNum" x="6" y="14">1</text>
      <use id="housing-icon-1" href="skills_sprite.svg#stamina" x="15" y="15" width="40" height="40" />
      <text class="skillLevel" id="housing-level-1" x="65" y="14">{{housing-1}}</text>
      <rect class="slot" x="0" y="80"  width="70" height="70"/><text class="slotNum" x="6" y="94">2</text>
      <use id="housing-icon-2" href="skills_sprite.svg#intelligence" x="15" y="95" width="40" height="40" />
      <text class="skillLevel" id="housing-level-2" x="65" y="94">{{housing-2}}</text>
      <rect class="slot" x="0" y="160" width="70" height="70"/><text class="slotNum" x="6" y="174">3</text>
      <use id="housing-icon-3" href="skills_sprite.svg#attack" x="15" y="175" width="40" height="40" />
      <text class="skillLevel" id="housing-level-3" x="65" y="174">{{housing-3}}</text>
      <rect class="slot" x="0" y="240" width="70" height="70"/><text class="slotNum" x="6" y="254">4</text>
      <use id="housing-icon-4" href="skills_sprite.svg#defense" x="15" y="255" width="40" height="40" />
      <text class="skillLevel" id="housing-level-4" x="65" y="254">{{housing-4}}</text>
      <rect class="slot" x="0" y="320" width="70" height="70"/><text class="slotNum" x="6" y="334">5</text>
      <use id="housing-icon-5" href="skills_sprite.svg#melee" x="15" y="335" width="40" height="40" />
      <text class="skillLevel" id="housing-level-5" x="65" y="334">{{housing-5}}</text>
      <rect class="slot" x="0" y="400" width="70" height="70"/><text class="slotNum" x="6" y="414">6</text>
      <use id="housing-icon-6" href="skills_sprite.svg#ranged" x="15" y="415" width="40" height="40" />
      <text class="skillLevel" id="housing-level-6" x="65" y="414">{{housing-6}}</text>
      <rect class="slot" x="0" y="480" width="70" height="70"/><text class="slotNum" x="6" y="494">7</text>
      <use id="housing-icon-7" href="skills_sprite.svg#magic" x="15" y="495" width="40" height="40" />
      <text class="skillLevel" id="housing-level-7" x="65" y="494">{{housing-7}}</text>
    </g>
  </g>
</g>

</svg>
