<svg xmlns="http://www.w3.org/2000/svg" width="870" height="610" viewBox="0 0 870 610">
  <style>
    :root {
      --color-background: #131c37;
      --color-panel: #202a54;
      --color-panel-stroke: #4357af;
      --color-label: #98a7e9;
      --color-subtle: #c7b5e3;
      --color-slot: #1c2549;
      --color-slot-stroke: #546ddb;
      --color-slot-num: #a272e4;
      --color-highlight: #dd7b5c;
      --color-text-dark-mode: #e7e7e7;
    }

    .panel { fill: var(--color-panel); fill-opacity: 0.5; stroke: var(--color-panel-stroke); stroke-width: 2; }
    .title { font: 700 12px system-ui, -apple-system, Segoe UI, Roboto, Arial; fill: var(--color-label); }
    .subtitle { font: 12px system-ui, -apple-system, Segoe UI, Roboto, Arial; fill: var(--color-subtle); }
    .slot { fill: var(--color-slot); stroke: var(--color-slot-stroke); stroke-width: 1.5; }
    .slotNum { font: 0px system-ui, -apple-system, Segoe UI, Roboto, Arial; fill: var(--color-slot-num); }
    .skillLevel { font: 700 12px system-ui, -apple-system, Segoe UI, Roboto, Arial; fill: var(--color-text-dark-mode); text-anchor: end; }
  </style>

  <rect x="0" y="0" width="1100" height="720" fill="var(--color-background)"/>
  <image href="background.svg" x="0" y="0" width="870" height="610" preserveAspectRatio="xMidYMid slice" opacity="0.65" />

  <!-- Layout constants (by convention):
       slot = 70, gap = 10, padding = 18
  -->
<g transform="translate(10,10)">
  <!-- ===== Equipment (center) ===== -->
  <g transform="translate(0,0)">
    <rect class="panel" x="0" y="0" width="370" height="230" />
    <text class="title" x="3" y="14">Character</text>
  </g>

  <!-- ===== Equipment (center) ===== -->
  <g transform="translate(0,240)">
    <rect class="panel" x="0" y="0" width="370" height="350" />
    <text class="title" x="3" y="16">Equipment</text>

    <!-- 4x4 grid -->
    <g transform="translate(20,20)">
      <!-- row 1 -->
      <rect class="slot" x="0"   y="0"  width="70" height="70"/><text class="slotNum" x="6"  y="14">1</text>
      <rect class="slot" x="80"  y="0"  width="70" height="70"/><text class="slotNum" x="86" y="14">2</text>
      <rect class="slot" x="160" y="0"  width="70" height="70"/><text class="slotNum" x="166" y="14">3</text>
      <rect class="slot" x="260" y="0"  width="70" height="70"/><text class="slotNum" x="266" y="14">11</text>

      <!-- row 2 -->
      <rect class="slot" x="0"   y="80" width="70" height="70"/><text class="slotNum" x="6"  y="94">4</text>
      <rect class="slot" x="80"  y="80" width="70" height="70"/><text class="slotNum" x="86" y="94">5</text>
      <rect class="slot" x="160" y="80" width="70" height="70"/><text class="slotNum" x="166" y="94">6</text>
      <rect class="slot" x="260" y="80" width="70" height="70"/><text class="slotNum" x="266" y="94">12</text>

      <!-- row 3 -->
      <rect class="slot" x="0"   y="160" width="70" height="70"/><text class="slotNum" x="6"  y="174">7</text>
      <rect class="slot" x="80"  y="160" width="70" height="70"/><text class="slotNum" x="86" y="174">8</text>
      <rect class="slot" x="160" y="160" width="70" height="70"/><text class="slotNum" x="166" y="174">9</text>
      <rect class="slot" x="260" y="160" width="70" height="70"/><text class="slotNum" x="266" y="174">13</text>

      <!-- row 4 -->
      <!--rect class="slot" x="0"   y="240" width="70" height="70"/><text class="slotNum" x="6"  y="254">13</text-->
      <rect class="slot" x="80"  y="240" width="70" height="70"/><text class="slotNum" x="86" y="254">10</text>
      <!--rect class="slot" x="160" y="240" width="70" height="70"/><text class="slotNum" x="166" y="254">15</text-->
      <rect class="slot" x="260" y="240" width="70" height="70"/><text class="slotNum" x="266" y="254">14</text>
    </g>
  </g>

  <!-- ===== Right side: Food (rows of 3) ===== -->
  <g transform="translate(380,0)">
    <rect class="panel" x="0" y="0" width="350" height="190" />
    <text class="title" x="3" y="14">Food</text>

    <g transform="translate(55,20)">
      <!-- row 1 (1-3) -->
      <rect class="slot" x="0"   y="0" width="70" height="70"/><text class="slotNum" x="6"  y="14">1</text>
      <rect class="slot" x="80"  y="0" width="70" height="70"/><text class="slotNum" x="86" y="14">2</text>
      <rect class="slot" x="160" y="0" width="70" height="70"/><text class="slotNum" x="166" y="14">3</text>

      <!-- row 2 (4-6) -->
      <rect class="slot" x="0"   y="80" width="70" height="70"/><text class="slotNum" x="6"  y="94">4</text>
      <rect class="slot" x="80"  y="80" width="70" height="70"/><text class="slotNum" x="86" y="94">5</text>
      <rect class="slot" x="160" y="80" width="70" height="70"/><text class="slotNum" x="166" y="94">6</text>
    </g>
  </g>

  <!-- ===== Right side: Abilities (rows of 3) ===== -->
  <g transform="translate(380,200)">
    <rect class="panel" x="0" y="0" width="350" height="190" />
    <text class="title" x="3" y="14">Abilities</text>

    <g transform="translate(20,20)">
      <!-- row 1 -->
      <rect class="slot" x="0"   y="0" width="70" height="70"/><text class="slotNum" x="6"  y="14">1</text>
      <rect class="slot" x="80"  y="0" width="70" height="70"/><text class="slotNum" x="86" y="14">2</text>
      <rect class="slot" x="160" y="0" width="70" height="70"/><text class="slotNum" x="166" y="14">3</text>
      <rect class="slot" x="240" y="0" width="70" height="70"/><text class="slotNum" x="246" y="14">4</text>

      <!-- row 2 -->
      <rect class="slot" x="0"   y="80" width="70" height="70"/><text class="slotNum" x="6"  y="94">5</text>
      <rect class="slot" x="80"  y="80" width="70" height="70"/><text class="slotNum" x="86" y="94">6</text>
      <rect class="slot" x="160" y="80" width="70" height="70"/><text class="slotNum" x="166" y="94">7</text>
      <rect class="slot" x="240" y="80" width="70" height="70"/><text class="slotNum" x="246" y="94">8</text>
    </g>
  </g>

  <!-- ===== Skills (8 slots) ===== -->
  <g transform="translate(380,400)">
    <rect class="panel" x="0" y="0" width="350" height="190" />
    <text class="title" x="3" y="14">Skills</text>

    <g transform="translate(20,20)">
      <!-- row 1 -->
      <rect class="slot" x="0"   y="0" width="70" height="70"/><text class="slotNum" x="6"  y="14">1</text>
      <use href="misc_sprite.svg#combat" x="15" y="15" width="40" height="40" />
      <rect class="slot" x="80"  y="0" width="70" height="70"/><text class="slotNum" x="86" y="14">2</text>
      <use href="skills_sprite.svg#melee" x="95" y="15" width="40" height="40" />
      <rect class="slot" x="160" y="0" width="70" height="70"/><text class="slotNum" x="166" y="14">3</text>
      <use href="skills_sprite.svg#ranged" x="175" y="15" width="40" height="40" />
      <rect class="slot" x="240" y="0" width="70" height="70"/><text class="slotNum" x="246" y="14">4</text>
      <use href="skills_sprite.svg#magic" x="255" y="15" width="40" height="40" />
      <text class="skillLevel" id="skill-level-1" x="65" y="14">—</text>
      <text class="skillLevel" id="skill-level-2" x="145" y="14">—</text>
      <text class="skillLevel" id="skill-level-3" x="225" y="14">—</text>
      <text class="skillLevel" id="skill-level-4" x="305" y="14">—</text>

      <!-- row 2 -->
      <rect class="slot" x="0"   y="80" width="70" height="70"/><text class="slotNum" x="6"  y="94">5</text>
      <use href="skills_sprite.svg#stamina" x="15" y="95" width="40" height="40" />
      <rect class="slot" x="80"  y="80" width="70" height="70"/><text class="slotNum" x="86" y="94">6</text>
      <use href="skills_sprite.svg#intelligence" x="95" y="95" width="40" height="40" />
      <rect class="slot" x="160" y="80" width="70" height="70"/><text class="slotNum" x="166" y="94">7</text>
      <use href="skills_sprite.svg#attack" x="175" y="95" width="40" height="40" />
      <rect class="slot" x="240" y="80" width="70" height="70"/><text class="slotNum" x="246" y="94">8</text>
      <use href="skills_sprite.svg#defense" x="255" y="95" width="40" height="40" />
      <text class="skillLevel" id="skill-level-5" x="65" y="94">—</text>
      <text class="skillLevel" id="skill-level-6" x="145" y="94">—</text>
      <text class="skillLevel" id="skill-level-7" x="225" y="94">—</text>
      <text class="skillLevel" id="skill-level-8" x="305" y="94">—</text>
    </g>
  </g>

  <!-- ===== Housing (left of Equipment, vertical) ===== -->
  <g transform="translate(740,0)">
    <rect class="panel" x="0" y="0" width="110" height="590" />
    <text class="title" x="3" y="14">Housing</text>

    <!-- 7 stacked slots -->
    <g transform="translate(20,20)">
      <rect class="slot" x="0" y="0"   width="70" height="70"/><text class="slotNum" x="6" y="14">1</text>
      <rect class="slot" x="0" y="80"  width="70" height="70"/><text class="slotNum" x="6" y="94">2</text>
      <rect class="slot" x="0" y="160" width="70" height="70"/><text class="slotNum" x="6" y="174">3</text>
      <rect class="slot" x="0" y="240" width="70" height="70"/><text class="slotNum" x="6" y="254">4</text>
      <rect class="slot" x="0" y="320" width="70" height="70"/><text class="slotNum" x="6" y="334">5</text>
      <rect class="slot" x="0" y="400" width="70" height="70"/><text class="slotNum" x="6" y="414">6</text>
      <rect class="slot" x="0" y="480" width="70" height="70"/><text class="slotNum" x="6" y="494">7</text>
    </g>
  </g>
</g>
<script><![CDATA[
(function() {
  const params = new URLSearchParams(location.search);
  const raw = params.get('urp');
  let data = {};
  try {
    data = raw ? JSON.parse(decodeURIComponent(raw)) : {};
  } catch (err) {
    data = {};
  }

  const num = (value) => {
    const n = Number(value);
    return Number.isFinite(n) ? n : 0;
  };

  const setLevel = (id, value) => {
    const el = document.getElementById(id);
    if (!el) return;
    const n = Number.isFinite(value) ? value : num(value);
    el.textContent = Number.isFinite(n) ? Math.round(n) : '—';
  };

  // Expected array order in urp: [stamina, intelligence, attack, defense, melee, ranged, magic]
  const payload = Array.isArray(data) ? data : Array.isArray(data.skills) ? data.skills : [];
  const stamina = num(payload[0]);
  const intelligence = num(payload[1]);
  const attack = num(payload[2]);
  const defense = num(payload[3]);
  const melee = num(payload[4]);
  const ranged = num(payload[5]);
  const magic = num(payload[6]);

  // Layout slot order: 1 combat-level (calculated), 2 melee, 3 ranged, 4 magic, 5 stamina, 6 intelligence, 7 attack, 8 defense.
  setLevel('skill-level-2', melee);
  setLevel('skill-level-3', ranged);
  setLevel('skill-level-4', magic);
  setLevel('skill-level-5', stamina);
  setLevel('skill-level-6', intelligence);
  setLevel('skill-level-7', attack);
  setLevel('skill-level-8', defense);

  const maxMeleeRangedMagic = Math.max(melee, ranged, magic);
  const maxAttackDefenseMeleeRangedMagic = Math.max(attack, defense, melee, ranged, magic);
  const slot1 = 0.1 * (stamina + intelligence + attack + defense + maxMeleeRangedMagic) + 0.5 * maxAttackDefenseMeleeRangedMagic;
  setLevel('skill-level-1', slot1);
})();
]]></script>
</svg>
