<?xml version="1.0" encoding="utf-8"?><svg xmlns="http://www.w3.org/2000/svg" xmlns:xlink="http://www.w3.org/1999/xlink"><symbol fill="none" viewBox="0 0 40 40" id="alchemy" xmlns="http://www.w3.org/2000/svg"><g clip-path="url(#aa)"><circle cx="20" cy="20" r="19" stroke="#546DDB" stroke-width="2"/><circle cx="20" cy="20" r="19" stroke="#fff" stroke-opacity=".2" stroke-width="2"/><path d="M26.21 20c0 4.47-.779 8.469-1.998 11.313-.61 1.424-1.31 2.512-2.038 3.23-.723.714-1.418 1.013-2.06 1.013-.641 0-1.336-.3-2.06-1.013-.727-.718-1.428-1.806-2.038-3.23C14.797 28.469 14.02 24.47 14.02 20c0-4.47.778-8.469 1.997-11.313.61-1.424 1.311-2.512 2.039-3.23.723-.714 1.418-1.013 2.06-1.013.64 0 1.336.299 2.059 1.013.727.718 1.428 1.806 2.038 3.23C25.432 11.531 26.21 15.53 26.21 20Z" stroke="#546DDB" stroke-width="2"/><path d="M26.21 20c0 4.47-.779 8.469-1.998 11.313-.61 1.424-1.31 2.512-2.038 3.23-.723.714-1.418 1.013-2.06 1.013-.641 0-1.336-.3-2.06-1.013-.727-.718-1.428-1.806-2.038-3.23C14.797 28.469 14.02 24.47 14.02 20c0-4.47.778-8.469 1.997-11.313.61-1.424 1.311-2.512 2.039-3.23.723-.714 1.418-1.013 2.06-1.013.64 0 1.336.299 2.059 1.013.727.718 1.428 1.806 2.038 3.23C25.432 11.531 26.21 15.53 26.21 20Z" stroke="#fff" stroke-opacity=".2" stroke-width="2"/><path d="M23.162 25.279c-3.87 2.235-7.723 3.56-10.796 3.927-1.538.183-2.831.12-3.817-.15-.98-.27-1.586-.722-1.907-1.278-.32-.555-.409-1.307-.152-2.29.258-.989.85-2.14 1.778-3.38 1.854-2.478 4.928-5.152 8.799-7.387 3.87-2.235 7.723-3.56 10.796-3.927 1.538-.183 2.831-.12 3.816.15.98.27 1.587.722 1.907 1.278.321.556.41 1.307.153 2.29-.258.989-.85 2.14-1.778 3.38-1.854 2.478-4.928 5.152-8.799 7.387Z" stroke="#546DDB" stroke-width="2"/><path d="M23.162 25.279c-3.87 2.235-7.723 3.56-10.796 3.927-1.538.183-2.831.12-3.817-.15-.98-.27-1.586-.722-1.907-1.278-.32-.555-.409-1.307-.152-2.29.258-.989.85-2.14 1.778-3.38 1.854-2.478 4.928-5.152 8.799-7.387 3.87-2.235 7.723-3.56 10.796-3.927 1.538-.183 2.831-.12 3.816.15.98.27 1.587.722 1.907 1.278.321.556.41 1.307.153 2.29-.258.989-.85 2.14-1.778 3.38-1.854 2.478-4.928 5.152-8.799 7.387Z" stroke="#fff" stroke-opacity=".2" stroke-width="2"/><path d="M17.067 25.279c-3.871-2.235-6.945-4.909-8.8-7.386-.927-1.24-1.52-2.392-1.777-3.381-.257-.983-.168-1.735.152-2.29.321-.556.928-1.008 1.907-1.277.986-.271 2.279-.334 3.817-.15 3.073.366 6.925 1.691 10.796 3.926 3.87 2.235 6.945 4.909 8.799 7.386.928 1.24 1.52 2.392 1.778 3.381.256.983.168 1.735-.153 2.29-.32.556-.927 1.008-1.907 1.277-.985.271-2.278.334-3.816.15-3.073-.366-6.926-1.691-10.796-3.926Z" stroke="#546DDB" stroke-width="2"/><path d="M17.067 25.279c-3.871-2.235-6.945-4.909-8.8-7.386-.927-1.24-1.52-2.392-1.777-3.381-.257-.983-.168-1.735.152-2.29.321-.556.928-1.008 1.907-1.277.986-.271 2.279-.334 3.817-.15 3.073.366 6.925 1.691 10.796 3.926 3.87 2.235 6.945 4.909 8.799 7.386.928 1.24 1.52 2.392 1.778 3.381.256.983.168 1.735-.153 2.29-.32.556-.927 1.008-1.907 1.277-.985.271-2.278.334-3.816.15-3.073-.366-6.926-1.691-10.796-3.926Z" stroke="#fff" stroke-opacity=".2" stroke-width="2"/><circle cx="20" cy="20" r="3" fill="#546DDB"/><circle cx="20" cy="20" r="3" fill="#fff" fill-opacity=".2"/><circle cx="10" cy="29" r="2" fill="#D0333D"/><circle cx="10" cy="29" r="2" fill="#fff" fill-opacity=".2"/><circle cx="17" cy="7" r="2" fill="#FAA21E"/><circle cx="33" cy="24" r="2" fill="#2FC4A7"/></g><defs><clipPath id="aa"><path fill="#fff" transform="matrix(-1 0 0 1 40 0)" d="M0 0h40v40H0z"/></clipPath></defs></symbol><symbol fill="none" viewBox="0 0 40 40" id="attack" xmlns="http://www.w3.org/2000/svg"><path d="M30.862 26.706 20.816 10.91l-7.654 4.308 8.74 16.753c3.012 3.84 6.09 6.223 10.398 7.545.954-4.673.379-8.28-1.438-12.81Z" fill="#D0333D"/><path d="M30.862 26.706 20.816 10.91l-7.654 4.308 8.74 16.753c3.012 3.84 6.09 6.223 10.398 7.545.954-4.673.379-8.28-1.438-12.81Z" fill="#fff" fill-opacity=".6"/><path d="M14.715 1.975a1.999 1.999 0 0 0-2.81-.884L8.906 2.822a2.001 2.001 0 0 0-.629 2.895l5.843 8.195a1.999 1.999 0 0 0 2.656.554l1.401-.841a2.001 2.001 0 0 0 .783-2.563l-4.246-9.087Z" fill="#D0333D"/><rect width="20.917" height="2.615" rx="1.308" transform="matrix(-.8659 .50023 .49977 .86616 25.334 6.524)" fill="#D0333D"/></symbol><symbol fill="none" viewBox="0 0 40 40" id="brewing" xmlns="http://www.w3.org/2000/svg"><g clip-path="url(#ca)"><path d="M33 15H7c0 1.685.168 5.64 1 8.947C8.832 27.256 10 30 11 32h18c1.04-1.532 2.168-5.48 3-8.053.832-2.573 1-6.956 1-8.947Z" fill="#2FC4A7"/><path d="M33 15H7c0 1.685.168 5.64 1 8.947C8.832 27.256 10 30 11 32h18c1.04-1.532 2.168-5.48 3-8.053.832-2.573 1-6.956 1-8.947Z" fill="#fff" fill-opacity=".4"/><path d="M33 15H7c0 1.685.168 5.64 1 8.947C8.832 27.256 10 30 11 32h18c1.04-1.532 2.168-5.48 3-8.053.832-2.573 1-6.956 1-8.947Z" stroke="#2FC4A7"/><path d="M33 15H7c0 1.685.168 5.64 1 8.947C8.832 27.256 10 30 11 32h18c1.04-1.532 2.168-5.48 3-8.053.832-2.573 1-6.956 1-8.947Z" stroke="#fff" stroke-opacity=".4"/><path d="M2 37.4C.64 36.313.333 35.4 0 35h40c-.5.4-.75 1.4-2 2.4s-3.333 1.2-4 1.6H6c-.667-.4-2.64-.513-4-1.6Z" fill="#2FC4A7"/><path d="M2 37.4C.64 36.313.333 35.4 0 35h40c-.5.4-.75 1.4-2 2.4s-3.333 1.2-4 1.6H6c-.667-.4-2.64-.513-4-1.6Z" fill="#fff" fill-opacity=".2"/><path d="M2 37.4C.64 36.313.333 35.4 0 35h40c-.5.4-.75 1.4-2 2.4s-3.333 1.2-4 1.6H6c-.667-.4-2.64-.513-4-1.6Z" stroke="#2FC4A7"/><path d="M2 37.4C.64 36.313.333 35.4 0 35h40c-.5.4-.75 1.4-2 2.4s-3.333 1.2-4 1.6H6c-.667-.4-2.64-.513-4-1.6Z" stroke="#fff" stroke-opacity=".2"/><path d="M31.5 18.5c.603-.32 4-1.5 5.5-.5 2.16 1.44 2.103 3.077 1.5 5-.482 1.538-6.085 4.398-9.5 6" stroke="#2FC4A7" stroke-width="2"/><path d="M31.5 18.5c.603-.32 4-1.5 5.5-.5 2.16 1.44 2.103 3.077 1.5 5-.482 1.538-6.085 4.398-9.5 6" stroke="#fff" stroke-opacity=".4" stroke-width="2"/><path d="M18 2c.833.333 4 .844 4 3s-4 3-4 5 2 2.5 4 3" stroke="#1D8CE0" stroke-width="2"/><path d="M18 2c.833.333 4 .844 4 3s-4 3-4 5 2 2.5 4 3" stroke="#fff" stroke-opacity=".8" stroke-width="2"/></g><defs><clipPath id="ca"><path fill="#fff" d="M0 0h40v40H0z"/></clipPath></defs></symbol><symbol fill="none" viewBox="0 0 41 41" id="cheesesmithing" xmlns="http://www.w3.org/2000/svg"><path d="M18.825 18.282 8.633 36.915" stroke="#FAA21E" stroke-width="3.985" stroke-linecap="round"/><path d="M18.825 18.282 8.633 36.915" stroke="#fff" stroke-opacity=".2" stroke-width="3.985" stroke-linecap="round"/><path d="m30.938 24.53 4.098-7.418a3.985 3.985 0 0 0-1.575-5.423l-17.195-9.41a3.985 3.985 0 0 0-5.386 1.542L6.598 11.43a3.985 3.985 0 0 0 1.606 5.475l17.378 9.218a3.985 3.985 0 0 0 5.355-1.593Z" fill="#FAA21E"/><path d="m30.938 24.53 4.098-7.418a3.985 3.985 0 0 0-1.575-5.423l-17.195-9.41a3.985 3.985 0 0 0-5.386 1.542L6.598 11.43a3.985 3.985 0 0 0 1.606 5.475l17.378 9.218a3.985 3.985 0 0 0 5.355-1.593Z" fill="#fff" fill-opacity=".2"/><path fill-rule="evenodd" clip-rule="evenodd" d="M7.441 9.932a2.41 2.41 0 1 0 2.288-4.066L7.44 9.932Zm19.438-1.845a2.408 2.408 0 0 0 2.978 3.579c.578-.267 1-.734 1.221-1.281L26.88 8.087Zm-10.985 1.38a2.968 2.968 0 1 0 5.389-2.492 2.968 2.968 0 0 0-5.389 2.493Zm7.56 8.404a1.606 1.606 0 1 1-1.348-2.915 1.606 1.606 0 0 1 1.349 2.915Zm-12.226-2.18a1.38 1.38 0 1 0 2.503-1.158 1.38 1.38 0 0 0-2.503 1.158Zm15.411 9.006a2.016 2.016 0 1 1-1.044-3.894 2.016 2.016 0 0 1 1.044 3.894Zm3.346-7.013a.803.803 0 1 0 1.457-.674.803.803 0 0 0-1.457.674Z" fill="#FAA21E"/><path fill-rule="evenodd" clip-rule="evenodd" d="M7.441 9.932a2.41 2.41 0 1 0 2.288-4.066L7.44 9.932Zm19.438-1.845a2.408 2.408 0 0 0 2.978 3.579c.578-.267 1-.734 1.221-1.281L26.88 8.087Zm-10.985 1.38a2.968 2.968 0 1 0 5.389-2.492 2.968 2.968 0 0 0-5.389 2.493Zm7.56 8.404a1.606 1.606 0 1 1-1.348-2.915 1.606 1.606 0 0 1 1.349 2.915Zm-12.226-2.18a1.38 1.38 0 1 0 2.503-1.158 1.38 1.38 0 0 0-2.503 1.158Zm15.411 9.006a2.016 2.016 0 1 1-1.044-3.894 2.016 2.016 0 0 1 1.044 3.894Zm3.346-7.013a.803.803 0 1 0 1.457-.674.803.803 0 0 0-1.457.674Z" fill="#fff" fill-opacity=".8"/></symbol><symbol fill="none" viewBox="0 0 40 40" id="cooking" xmlns="http://www.w3.org/2000/svg"><path d="m9.19 37.026-.484-11.101c-5.005-3.638-9.173-5.34-6.715-12.048C3.839 8.833 9.3 6.866 13.383 10.63c-.792-3.744 2.676-9.442 8.902-9.109 6.227.334 9.775 6.932 7.747 11.343 2.712-.089 8.855.06 8.727 6.136-.113 5.37-4.472 7.845-9.607 8.077l-1.64 10.455-18.321-.506Z" fill="#FEFEFE"/><path d="M13.847 26.46a1 1 0 0 0-2-.006l2 .006Zm-2-.006-.031 10.577 2 .005.031-10.576-2-.006Z" fill="#898989"/><path d="M13.847 26.46a1 1 0 0 0-2-.006l2 .006Zm-2-.006-.031 10.577 2 .005.031-10.576-2-.006Z" fill="#fff" fill-opacity=".2"/><path d="M19.782 26.79a1 1 0 0 0-1.998-.093l1.998.093Zm-1.998-.093-.486 10.392 1.998.094.486-10.393-1.998-.093Z" fill="#898989"/><path d="M19.782 26.79a1 1 0 0 0-1.998-.093l1.998.093Zm-1.998-.093-.486 10.392 1.998.094.486-10.393-1.998-.093Z" fill="#fff" fill-opacity=".2"/><path d="M25.558 27.305a1 1 0 1 0-1.992-.184l1.992.184Zm-1.992-.184-.941 10.21 1.991.183.942-10.209-1.992-.184Z" fill="#898989"/><path d="M25.558 27.305a1 1 0 1 0-1.992-.184l1.992.184Zm-1.992-.184-.941 10.21 1.991.183.942-10.209-1.992-.184Z" fill="#fff" fill-opacity=".2"/></symbol><symbol fill="none" viewBox="0 0 40 40" id="crafting" xmlns="http://www.w3.org/2000/svg"><path d="m12.174 29.406-.58-2.899L0 31.725l11.014-1.16 1.16-1.16ZM19.861 32.13l-1.89-4.463 8.878-2.526 4.447 2.542L40 39.26 19.86 32.13ZM26.667 24.188l-4.058-3.478L29.39 1l-2.723 23.188ZM17.955 26.412l1.755-6.861 5.869 4.955-7.624 1.906Z" fill="#FEFEFE"/><path d="m15.652 36.362 1.74-7.536 1.739 4.058 2.898 1.16-6.377 2.318ZM11.014 7.957l-2.898-1.74 6.377 30.145 2.192-8.68 1.286-5.233-6.957-14.492ZM8.06 10.466l-.794-4.249-6.107 8.116 6.901-3.867Z" fill="#FEFEFE"/></symbol><symbol fill="none" viewBox="0 0 40 40" id="defense" xmlns="http://www.w3.org/2000/svg"><path d="M11.895 4.735C9.347 5.78 5.57 6.367 4 6.53v15.673c0 2.939.149 5.316 3.324 9.306C10.5 35.5 20 40 20 40s9.5-4.5 12.63-8.49c3.131-3.99 3.413-7.456 3.367-9.306V6.531c-1.986-.272-6.427-1.013-8.311-1.796C25.802 3.95 21.846 1.252 20 0c-1.57 1.143-5.556 3.69-8.105 4.735Z" fill="#546DDB"/><path d="M11.895 4.735C9.347 5.78 5.57 6.367 4 6.53v15.673c0 2.939.149 5.316 3.324 9.306C10.5 35.5 20 40 20 40s9.5-4.5 12.63-8.49c3.131-3.99 3.413-7.456 3.367-9.306V6.531c-1.986-.272-6.427-1.013-8.311-1.796C25.802 3.95 21.846 1.252 20 0c-1.57 1.143-5.556 3.69-8.105 4.735Z" fill="#fff" fill-opacity=".2"/><path d="M13.922 7.788C12.01 8.624 9.177 9.094 8 9.224V21.8c0 2.333 0 4.134 2.493 7.408C13 32.5 20 36 20 36s6-3 9.297-6.792c3.297-3.792 2.736-5.964 2.701-7.445V9.224c-1.489-.217-4.82-.81-6.233-1.436C24.352 7.16 21.385 5 20 4c-1.177.914-4.167 2.952-6.078 3.788Z" fill="#FEFEFE"/><path d="M16 10.84c-1.274.628-3.215 1.062-4 1.16v9.322c0 1.764 1 4.178 2 5.678s6 5 6 5 4.5-3 6-5 2.022-4.567 1.999-5.678V12c-.993-.163-3.057-.689-3.999-1.16-.942-.47-3.076-2.089-4-2.84-.785.686-2.726 2.214-4 2.84Z" fill="#546DDB"/><path d="M16 10.84c-1.274.628-3.215 1.062-4 1.16v9.322c0 1.764 1 4.178 2 5.678s6 5 6 5 4.5-3 6-5 2.022-4.567 1.999-5.678V12c-.993-.163-3.057-.689-3.999-1.16-.942-.47-3.076-2.089-4-2.84-.785.686-2.726 2.214-4 2.84Z" fill="#fff" fill-opacity=".2"/></symbol><symbol fill="none" viewBox="0 0 40 40" id="enhancing" xmlns="http://www.w3.org/2000/svg"><path d="M14.674 23.232c-.252-2.423.685-4.31 1.172-4.66l-3.725.304-2.614 4.43c.058.53 1.444 2.973 2.868 4.584 1.864 2.108 3.704 3.668 4.544 4.27l1.26-1.024c-1.473-2.105-3.301-5.95-3.505-7.904Z" fill="#898989"/><path d="M14.674 23.232c-.252-2.423.685-4.31 1.172-4.66l-3.725.304-2.614 4.43c.058.53 1.444 2.973 2.868 4.584 1.864 2.108 3.704 3.668 4.544 4.27l1.26-1.024c-1.473-2.105-3.301-5.95-3.505-7.904Z" fill="#fff" fill-opacity=".2"/><path d="M19.5 14.163H9.424s-2.84 2.7-4.924 6.23C2.417 23.921 2 31.372 2 40h8.75c-.088-1.39-1.326-5.756-1.326-9.935 0-4.575.412-7.114 2.16-8.889 1.717-1.744 5-1.568 7.916-1.568v-5.445Z" fill="#898989"/><path d="M19.5 14.163H9.424s-2.84 2.7-4.924 6.23C2.417 23.921 2 31.372 2 40h8.75c-.088-1.39-1.326-5.756-1.326-9.935 0-4.575.412-7.114 2.16-8.889 1.717-1.744 5-1.568 7.916-1.568v-5.445Z" fill="#fff" fill-opacity=".8"/><path d="M30.75 0 19.5 14.118v5.49L30.75 32.94c-.556-1.7-2.083-7.608-2.083-16.078 0-8.47 1.527-14.771 2.083-16.863Z" fill="#898989"/><path d="M30.75 0 19.5 14.118v5.49L30.75 32.94c-.556-1.7-2.083-7.608-2.083-16.078 0-8.47 1.527-14.771 2.083-16.863Z" fill="#fff" fill-opacity=".8"/><ellipse cx="31.167" cy="16.471" rx="2.5" ry="16.471" fill="#898989"/><path fill="#D0333D" d="M29 16h6v2h-6z"/><path fill="#000" fill-opacity=".2" d="M29 16h6v2h-6z"/><circle cx="35" cy="17" r="3" fill="#D0333D"/><circle cx="35" cy="17" r="3" fill="#000" fill-opacity=".2"/></symbol><symbol fill="none" viewBox="0 0 40 40" id="foraging" xmlns="http://www.w3.org/2000/svg"><path d="M28 33.697c0 3.03-.81 5.303-8.095 5.303C16.936 39 11 37.94 11 33.697 11 28.394 13.429 14 19.905 14 26.38 14 28 30.667 28 33.697Z" fill="#7445B8"/><path d="M28 33.697c0 3.03-.81 5.303-8.095 5.303C16.936 39 11 37.94 11 33.697 11 28.394 13.429 14 19.905 14 26.38 14 28 30.667 28 33.697Z" fill="#fff" fill-opacity=".95"/><path d="M39.874 18.5C41.35 14.571 29.544 2 19.951 2 8.145 2-.562 15.357.028 18.5.766 22.429 11.834 24 19.951 24c8.116 0 18.447-1.571 19.923-5.5Z" fill="#7445B8"/><path d="M39.874 18.5C41.35 14.571 29.544 2 19.951 2 8.145 2-.562 15.357.028 18.5.766 22.429 11.834 24 19.951 24c8.116 0 18.447-1.571 19.923-5.5Z" fill="#fff" fill-opacity=".4"/><path d="M15.766 9.237c1.193-.924 2.994-1.555 1.46-3.041-1.534-1.487-3.62-.244-4.814.679-1.51 1.168-2.97 3.064-1.439 4.55 2.042 1.98 3.6-1.264 4.793-2.188ZM10.373 14.307c-.436-.849-1.514-1.905-2.363-1.469-.85.435-1.82 1.683-1.47 2.362.436.85 1.161 2.084 2.362 1.47.85-.436 1.779-1.763 1.47-2.363Z" fill="#FEFEFE"/></symbol><symbol fill="none" viewBox="0 0 40 40" id="intelligence" xmlns="http://www.w3.org/2000/svg"><path d="M0 19.083c0-4.65 3.637-7.01 4.676-7.01-.195.849-.214 1.362 0 2.39.167.804.346 1.369.519 1.54l1.558-.514c-.57-1.362-.735-3.605 0-5.134C7.741 8.3 8.831 6.76 12.468 6.76c3.845 0 4.624 1.027 5.714 2.054l1.507-.849-1.558-1.54c.866-.342 3.376-.898 6.285.335 2.846 1.205 3.066 2.745 4.104 4.286l1.09-.692L28.572 8.3c.692.086 2.384 0 4.675 1.54 1.92 1.292 2.597 2.482 2.597 3.081-.693 0-2.39.103-3.636.513-1.247.411-2.251 1.198-2.598 1.54l1.04 1.028c.987-.514 1.247-1.54 4.155-1.54 3.423 0 5.195 3.772 5.195 7.188 0 4.286-2.078 6.674-5.195 7.701-2.493.822-5.195.685-6.233.514.346.684 1.091 1.924 1.507 2.745.415.822.52 1.54.57 2.389l-3.117-.513c-.519-.685-1.609-2.39-3.116-3.595-1.371-1.096-3.688-2.046-4.207-2.388.52 0 2.046-.825 2.597-1.027.487-.179 1.04-.514 2.13-1.206l-1.56-1.026c-1.211.855-4.467 2.464-7.791 2.053-4.156-.513-5.195-2.902-5.195-5.327 0-1.683 2.027-3.522 3.066-4.25l-1.508-.692c-.866.514-2.701 2.157-3.117 4.622-.415 2.464.866 4.107 1.559 4.62-1.212.172-4.503.41-6.234-.334C2.546 25.245 0 23.883 0 19.083Z" fill="#CE4317"/><path d="M0 19.083c0-4.65 3.637-7.01 4.676-7.01-.195.849-.214 1.362 0 2.39.167.804.346 1.369.519 1.54l1.558-.514c-.57-1.362-.735-3.605 0-5.134C7.741 8.3 8.831 6.76 12.468 6.76c3.845 0 4.624 1.027 5.714 2.054l1.507-.849-1.558-1.54c.866-.342 3.376-.898 6.285.335 2.846 1.205 3.066 2.745 4.104 4.286l1.09-.692L28.572 8.3c.692.086 2.384 0 4.675 1.54 1.92 1.292 2.597 2.482 2.597 3.081-.693 0-2.39.103-3.636.513-1.247.411-2.251 1.198-2.598 1.54l1.04 1.028c.987-.514 1.247-1.54 4.155-1.54 3.423 0 5.195 3.772 5.195 7.188 0 4.286-2.078 6.674-5.195 7.701-2.493.822-5.195.685-6.233.514.346.684 1.091 1.924 1.507 2.745.415.822.52 1.54.57 2.389l-3.117-.513c-.519-.685-1.609-2.39-3.116-3.595-1.371-1.096-3.688-2.046-4.207-2.388.52 0 2.046-.825 2.597-1.027.487-.179 1.04-.514 2.13-1.206l-1.56-1.026c-1.211.855-4.467 2.464-7.791 2.053-4.156-.513-5.195-2.902-5.195-5.327 0-1.683 2.027-3.522 3.066-4.25l-1.508-.692c-.866.514-2.701 2.157-3.117 4.622-.415 2.464.866 4.107 1.559 4.62-1.212.172-4.503.41-6.234-.334C2.546 25.245 0 23.883 0 19.083Z" fill="#fff" fill-opacity=".6"/></symbol><symbol fill="none" viewBox="0 0 40 40" id="magic" xmlns="http://www.w3.org/2000/svg"><path d="M24.5 1v6" stroke="#FAA21E" stroke-width="2"/><path d="M24.5 1v6" stroke="#fff" stroke-opacity=".4" stroke-width="2"/><path d="M28 25v6" stroke="#FAA21E" stroke-width="2"/><path d="M28 25v6" stroke="#fff" stroke-opacity=".4" stroke-width="2"/><path d="M39 16h-6" stroke="#FAA21E" stroke-width="2"/><path d="M39 16h-6" stroke="#fff" stroke-opacity=".4" stroke-width="2"/><path d="M15 12H9" stroke="#FAA21E" stroke-width="2"/><path d="M15 12H9" stroke="#fff" stroke-opacity=".4" stroke-width="2"/><path d="m20.242 20-19 19" stroke="#FAA21E" stroke-width="2"/><path d="m20.242 20-19 19" stroke="#fff" stroke-opacity=".4" stroke-width="2"/><path d="M30.5 15s3-6.5 2-7.5-8 2.5-8 2.5S19 4.5 18 5s0 8.5 0 8.5-7 4-6.5 5 7.5 2 7.5 2 1.5 8 3 8 5-6.5 5-6.5 8 1 8.5 0-5-7-5-7Z" fill="#FAA21E"/></symbol><symbol fill="none" viewBox="0 0 40 40" id="melee" xmlns="http://www.w3.org/2000/svg"><path fill-rule="evenodd" clip-rule="evenodd" d="M7 16c0-3 .725-6.725 2-8 1-1 2.919-2 4.5-2 1.5 0 5 1 6 2s.5 2.5-1 3c-.648.216-1.39.152-2.104.09-.938-.08-1.828-.158-2.396.41-.79.79-.79 2.71 0 3.5 1 1 1.5 1.5 3.5 2.5l.045.022.05.042c.38.326.708.663.862.973.2.404.29.846.33 1.305.022.23.03.459.036.687l.004.149c.004.177.008.355.017.523a.5.5 0 0 0 .999-.056c-.008-.15-.012-.307-.016-.48l-.004-.162a11.636 11.636 0 0 0-.04-.75c-.047-.525-.154-1.103-.43-1.66a2.376 2.376 0 0 0-.084-.154c3.042.42 8.385.234 9.731-.439 1-.5 2-2 2.4-3.5.25-.938-.37-.954-.9-.5-.22.22-.383.578-.564.977-.23.505-.49 1.076-.936 1.523-1 1-9.264 1.118-11.5 0-2-1-3.5-2-3-3.5.166-.497.784-.376 1.61-.215.836.163 1.884.367 2.89.015 1.946-.681 3-3.3 2-4.8s-6-3-7.5-3c-1.052 0-2.022.41-2.737.712-.305.129-.564.238-.763.288.5-1.333 2.4-4.5 4-4.5 2 0 5.5.5 8 1.5S30 6 32 8c1.709 1.71 1.593 5.609 1.523 7.955-.012.4-.023.754-.023 1.045 0 1.373-1.178 3.924-2.078 5.874-.412.89-.765 1.656-.922 2.126-.112.337-.25.725-.401 1.151-.523 1.473-1.211 3.41-1.599 5.349-.252 1.26-.319 3.118-.375 4.694-.034.924-.063 1.752-.125 2.306-.214.072-.439.153-.68.24C25.879 39.266 23.858 40 20 40s-6.122-.49-7.74-.84c-.27-.058-.522-.112-.76-.16.667-2 2-6.5 2-8.5s-.333-3.5-.5-4c-.667-.833-2.3-3-3.5-5-.248-.413-.5-.804-.743-1.183C7.819 18.86 7 17.587 7 16Z" fill="#FAA21E"/><path fill-rule="evenodd" clip-rule="evenodd" d="M7 16c0-3 .725-6.725 2-8 1-1 2.919-2 4.5-2 1.5 0 5 1 6 2s.5 2.5-1 3c-.648.216-1.39.152-2.104.09-.938-.08-1.828-.158-2.396.41-.79.79-.79 2.71 0 3.5 1 1 1.5 1.5 3.5 2.5l.045.022.05.042c.38.326.708.663.862.973.2.404.29.846.33 1.305.022.23.03.459.036.687l.004.149c.004.177.008.355.017.523a.5.5 0 0 0 .999-.056c-.008-.15-.012-.307-.016-.48l-.004-.162a11.636 11.636 0 0 0-.04-.75c-.047-.525-.154-1.103-.43-1.66a2.376 2.376 0 0 0-.084-.154c3.042.42 8.385.234 9.731-.439 1-.5 2-2 2.4-3.5.25-.938-.37-.954-.9-.5-.22.22-.383.578-.564.977-.23.505-.49 1.076-.936 1.523-1 1-9.264 1.118-11.5 0-2-1-3.5-2-3-3.5.166-.497.784-.376 1.61-.215.836.163 1.884.367 2.89.015 1.946-.681 3-3.3 2-4.8s-6-3-7.5-3c-1.052 0-2.022.41-2.737.712-.305.129-.564.238-.763.288.5-1.333 2.4-4.5 4-4.5 2 0 5.5.5 8 1.5S30 6 32 8c1.709 1.71 1.593 5.609 1.523 7.955-.012.4-.023.754-.023 1.045 0 1.373-1.178 3.924-2.078 5.874-.412.89-.765 1.656-.922 2.126-.112.337-.25.725-.401 1.151-.523 1.473-1.211 3.41-1.599 5.349-.252 1.26-.319 3.118-.375 4.694-.034.924-.063 1.752-.125 2.306-.214.072-.439.153-.68.24C25.879 39.266 23.858 40 20 40s-6.122-.49-7.74-.84c-.27-.058-.522-.112-.76-.16.667-2 2-6.5 2-8.5s-.333-3.5-.5-4c-.667-.833-2.3-3-3.5-5-.248-.413-.5-.804-.743-1.183C7.819 18.86 7 17.587 7 16Z" fill="#fff" fill-opacity=".4"/></symbol><symbol fill="none" viewBox="0 0 40 40" id="milking" xmlns="http://www.w3.org/2000/svg"><path d="M26.325 2.975C26.325 1.405 22.3 1 20 1s-6.325.441-6.325 1.975c0 .846.862 1.128 1.15 1.41.096.94.115 3.273-.575 5.078-.863 2.257-2.755 2.953-4.025 3.95C8.787 14.54 8.5 16.797 8.5 17.925V35.98c.287.847 2.476 2.503 5.175 3.386 2.587.846 9.2.846 12.075 0 2.612-.77 5.75-2.54 5.75-3.386V17.926c0-1.222 0-3.498-1.725-4.513-1.725-1.016-3.162-2.257-4.025-3.95-.69-1.354-.67-3.855-.575-5.078.575-.282 1.15-.705 1.15-1.41Z" fill="#FEFEFE"/><path d="M27.342 20.81c-.921.564-1.71-.313-2.893-.028-1.184.285-1.58.674-1.975 1.387-.413.744-.397 2.17.391 2.848 1.117.959 2.554 1.933 4.79 2.005 2.56.083 3.033-1.372 3.845-2.005V21.5c-.153-.4-.146-1.1-.671-1.698-.657-.747-1.774-.98-2.367-.538-.675.504-.415 1.115-1.12 1.546Z" fill="#898989"/><path d="M27.342 20.81c-.921.564-1.71-.313-2.893-.028-1.184.285-1.58.674-1.975 1.387-.413.744-.397 2.17.391 2.848 1.117.959 2.554 1.933 4.79 2.005 2.56.083 3.033-1.372 3.845-2.005V21.5c-.153-.4-.146-1.1-.671-1.698-.657-.747-1.774-.98-2.367-.538-.675.504-.415 1.115-1.12 1.546Z" fill="#fff" fill-opacity=".4"/><path d="M13.4 11c-.837.972-2.003 1.468-2.5 2 .605.884 1.265.95 2.296.923 1.65-.042.725.934 3.056 2.115 2.33 1.181 4.307-.007 4.79-1.316.483-1.308-.922-2.133-1.487-2.392-.566-.26.003-.97-.092-1.848-.096-.88-.262-1.86-1.463-2.482-.802-.415-2.426-.374-3.4 0-.307 1.198-.454 2.133-1.2 3Z" fill="#898989"/><path d="M13.4 11c-.837.972-2.003 1.468-2.5 2 .605.884 1.265.95 2.296.923 1.65-.042.725.934 3.056 2.115 2.33 1.181 4.307-.007 4.79-1.316.483-1.308-.922-2.133-1.487-2.392-.566-.26.003-.97-.092-1.848-.096-.88-.262-1.86-1.463-2.482-.802-.415-2.426-.374-3.4 0-.307 1.198-.454 2.133-1.2 3Z" fill="#fff" fill-opacity=".4"/><path d="M12 25.5c-1.594-.28-3.499.792-3.5 2V36s.787 1.191 2 2c3 2 6.055 2.001 7.5 2 0-1-1.576-1.136-1.54-1.821.037-.685 1.663-.399 2.966-1.29.754-.515 1.527-2.474-.185-3.662-1.849-1.283-4.12-.242-4.391-1.15-.271-.907.72-1.08.776-2.545C15.696 27.684 14.85 26 12 25.5Z" fill="#898989"/><path d="M12 25.5c-1.594-.28-3.499.792-3.5 2V36s.787 1.191 2 2c3 2 6.055 2.001 7.5 2 0-1-1.576-1.136-1.54-1.821.037-.685 1.663-.399 2.966-1.29.754-.515 1.527-2.474-.185-3.662-1.849-1.283-4.12-.242-4.391-1.15-.271-.907.72-1.08.776-2.545C15.696 27.684 14.85 26 12 25.5Z" fill="#fff" fill-opacity=".4"/><ellipse cx="20.048" cy="2.773" rx="5.046" ry="1.278" transform="rotate(-.057 20.048 2.773)" fill="#898989"/><ellipse cx="20.048" cy="2.773" rx="5.046" ry="1.278" transform="rotate(-.057 20.048 2.773)" fill="#fff" fill-opacity=".6"/></symbol><symbol fill="none" viewBox="0 0 41 40" id="ranged" xmlns="http://www.w3.org/2000/svg"><path d="M5.445 4.988v-1.5 1.5Zm10.864 1.81-.832 1.249.832-1.248Zm18.109 18.11-1.37.609 1.37-.61Zm.906 9.959h-1.5 1.5ZM4.06 6.663c-.097.097-.146.095-.03.049.096-.038.239-.08.423-.117.374-.076.771-.107.991-.107v-3c-.415 0-1.014.05-1.591.168-.291.06-.612.143-.918.263-.285.112-.673.3-.997.623l2.122 2.121Zm1.384-.175c1.307 0 3.414.088 5.444.35 1.014.13 1.982.302 2.808.518.85.222 1.443.466 1.78.69l1.664-2.495c-.749-.5-1.718-.845-2.684-1.097-.99-.26-2.094-.45-3.184-.592a48.684 48.684 0 0 0-5.828-.374v3Zm10.032 1.559c.579.386 1.878 1.457 3.596 2.98a184.308 184.308 0 0 1 5.689 5.285c1.985 1.922 3.92 3.883 5.448 5.568a39.61 39.61 0 0 1 1.914 2.249c.517.668.808 1.129.923 1.388l2.741-1.22c-.27-.605-.748-1.303-1.293-2.006a42.568 42.568 0 0 0-2.063-2.426c-1.587-1.751-3.573-3.761-5.584-5.708a187.141 187.141 0 0 0-5.784-5.374c-1.692-1.5-3.143-2.713-3.923-3.232l-1.664 2.496Zm17.57 17.47c.409.919.634 2.582.727 4.497.09 1.858.05 3.678.05 4.853h3c0-1.09.042-3.044-.053-4.998-.092-1.896-.32-4.081-.983-5.571l-2.74 1.219Zm.777 9.35c0 .315-.003.612-.055.9-.052.286-.135.452-.215.546l2.272 1.959c1.055-1.224.998-2.895.998-3.405h-3Z" fill="#1D8CE0"/><path d="M12.438 27.564 36 4" stroke="#898989" stroke-width="2" stroke-linecap="round"/><path d="M12.438 27.564 36 4" stroke="#fff" stroke-opacity=".4" stroke-width="2" stroke-linecap="round"/><path d="m36 12-8.5-8.5 12-3L36 12Z" fill="#898989"/><path d="m36 12-8.5-8.5 12-3L36 12Z" fill="#fff" fill-opacity=".4"/><path d="M9 24h7v7l-7 7v-7H2l7-7Z" fill="#898989"/><path d="M9 24h7v7l-7 7v-7H2l7-7Z" fill="#fff" fill-opacity=".4"/><path d="M9 24h7v7l-7 7v-7H2l7-7Z" stroke="#898989"/><path d="M9 24h7v7l-7 7v-7H2l7-7Z" stroke="#fff" stroke-opacity=".4"/><path d="m4.457 5.691 29.879 29.88.707-.708L5.164 4.984l-.707.707Z" fill="#1D8CE0"/></symbol><symbol fill="none" viewBox="0 0 40 40" id="stamina" xmlns="http://www.w3.org/2000/svg"><path d="M7.438 4.796c9.03-6.268 11.367 5.598 11.407 12.315 5.41-5.076 16.785-12.027 19.012.779 2.226 12.805-17.381 17.905-27.463 18.855-4.747-8.038-11.986-25.68-2.956-31.949Z" fill="#CE4317"/><path d="M7.438 4.796c9.03-6.268 11.367 5.598 11.407 12.315 5.41-5.076 16.785-12.027 19.012.779 2.226 12.805-17.381 17.905-27.463 18.855-4.747-8.038-11.986-25.68-2.956-31.949Z" fill="#fff" fill-opacity=".15"/><path d="M12.218 10.063c1.141-.963 2.896-1.662 1.318-3.068-1.578-1.406-3.59-.092-4.732.87-1.444 1.218-2.81 3.153-1.235 4.559 2.101 1.873 3.508-1.399 4.649-2.361ZM9.58 15.97c-.662-.672-1.993-1.35-2.666-.687-.673.663-1.219 2.128-.688 2.666.664.673 1.714 1.624 2.666.687.674-.662 1.157-2.19.688-2.666Z" fill="#FEFEFE"/></symbol><symbol fill="none" viewBox="0 0 40 40" id="tailoring" xmlns="http://www.w3.org/2000/svg"><path d="M20 4.8c-2.85 0-5.225-1.9-5.7-3.8L7.175 3.375 1 14.3l7.6 2.85V39h22.8V17.15L39 14.3 32.825 3.375 25.7 1c-.475 1.9-2.85 3.8-5.7 3.8Z" fill="#D0333D"/><path d="M20 4.8c-2.85 0-5.225-1.9-5.7-3.8L7.175 3.375 1 14.3l7.6 2.85V39h22.8V17.15L39 14.3 32.825 3.375 25.7 1c-.475 1.9-2.85 3.8-5.7 3.8Z" fill="#fff" fill-opacity=".2"/><path d="M20 6.886c-2.336 0-6.314-2.429-7.286-3.886L8.83 4.457 3.486 13.2l7.285 2.914V37h18.571l-.113-20.886 7.285-2.914-5.343-8.743L27.286 3c-.972 1.457-4.95 3.886-7.286 3.886Z" stroke="#FEFEFE" stroke-width=".971" stroke-linecap="round" stroke-dasharray="1.94 2.91"/></symbol><symbol fill="none" viewBox="0 0 40 40" id="woodcutting" xmlns="http://www.w3.org/2000/svg"><path d="M27.661 29.716c.8-.303 2.386-3.55 2.669-3.994l-.775-.005s-1.88 3.673-3.87 3.431C23.695 28.909 24.5 23 24.5 23h-.895s.191 5.99 0 6.5C23.413 30.01 21 31 20 31c-.676 0-2-1-2-1l2.5-6.28h-1s-2.424 5.558-3 5.428c-.576-.13-2.312-4.888-2.312-4.888l-1.342.247s2.888 4.7 2.154 4.993c-.317.126-2.5-.663-2.5-.663l-2-1.74h-1s1.919 2.172 2.688 2.62c.768.447 3.853 1.435 4.312 1.783.881.667 1 1 .885 2.755-.122 1.863-.12 2.576-.354 3.718L16.5 40H23s-.914-1.554-.957-3.027c-.043-1.473-.571-2.603.489-4.5.536-.96 3.09-1.982 5.13-2.757Z" fill="#FAA21E"/><path d="M27.661 29.716c.8-.303 2.386-3.55 2.669-3.994l-.775-.005s-1.88 3.673-3.87 3.431C23.695 28.909 24.5 23 24.5 23h-.895s.191 5.99 0 6.5C23.413 30.01 21 31 20 31c-.676 0-2-1-2-1l2.5-6.28h-1s-2.424 5.558-3 5.428c-.576-.13-2.312-4.888-2.312-4.888l-1.342.247s2.888 4.7 2.154 4.993c-.317.126-2.5-.663-2.5-.663l-2-1.74h-1s1.919 2.172 2.688 2.62c.768.447 3.853 1.435 4.312 1.783.881.667 1 1 .885 2.755-.122 1.863-.12 2.576-.354 3.718L16.5 40H23s-.914-1.554-.957-3.027c-.043-1.473-.571-2.603.489-4.5.536-.96 3.09-1.982 5.13-2.757Z" fill="#000" fill-opacity=".4"/><circle cx="11" cy="18" r="11" fill="#2FC4A7"/><circle cx="11" cy="18" r="11" fill="#000" fill-opacity=".4"/><circle cx="31" cy="21" r="9" fill="#2FC4A7"/><circle cx="31" cy="21" r="9" fill="#000" fill-opacity=".4"/><circle cx="22" cy="13" r="13" fill="#2FC4A7"/><circle cx="22" cy="13" r="13" fill="#000" fill-opacity=".2"/></symbol></svg>